<svg xmlns="http://www.w3.org/2000/svg" width="128" height="40" viewBox="0 0 128 40" fill="none"><path d="M37.966 31.363C36.338 31.363 34.853 31.011 33.511 30.307C32.191 29.581 31.135 28.58 30.343 27.304C29.573 26.006 29.188 24.51 29.188 22.816C29.188 21.078 29.584 19.571 30.376 18.295C31.168 17.019 32.235 16.029 33.577 15.325C34.941 14.599 36.481 14.236 38.197 14.236C40.089 14.236 41.607 14.621 42.751 15.391C43.917 16.139 44.764 17.162 45.292 18.46C45.82 19.758 46.084 21.21 46.084 22.816C46.084 23.784 45.93 24.774 45.622 25.786C45.314 26.776 44.841 27.7 44.203 28.558C43.565 29.394 42.729 30.076 41.695 30.604C40.661 31.11 39.418 31.363 37.966 31.363ZM39.352 28.063C40.65 28.063 41.772 27.843 42.718 27.403C43.664 26.963 44.39 26.347 44.896 25.555C45.402 24.763 45.655 23.85 45.655 22.816C45.655 21.694 45.391 20.748 44.863 19.978C44.357 19.186 43.631 18.592 42.685 18.196C41.761 17.778 40.65 17.569 39.352 17.569C37.526 17.569 36.107 18.053 35.095 19.021C34.083 19.967 33.577 21.232 33.577 22.816C33.577 23.872 33.819 24.796 34.303 25.588C34.787 26.358 35.458 26.963 36.316 27.403C37.196 27.843 38.208 28.063 39.352 28.063ZM45.655 14.599H49.945V31H45.952C45.952 31 45.919 30.791 45.853 30.373C45.809 29.933 45.765 29.383 45.721 28.723C45.677 28.063 45.655 27.414 45.655 26.776V14.599ZM62.0117 28.492C60.2297 28.492 58.6567 28.228 57.2927 27.7C55.9507 27.15 54.9057 26.347 54.1577 25.291C53.4097 24.235 53.0357 22.959 53.0357 21.463C53.0357 19.989 53.3987 18.713 54.1247 17.635C54.8507 16.557 55.8847 15.721 57.2267 15.127C58.5907 14.533 60.1857 14.236 62.0117 14.236C62.5177 14.236 63.0017 14.269 63.4637 14.335C63.9477 14.401 64.4207 14.489 64.8827 14.599L73.1657 14.632V17.866C72.0437 17.888 70.8997 17.756 69.7337 17.47C68.5897 17.162 67.5777 16.832 66.6977 16.48L66.5987 16.249C67.3467 16.601 68.0507 17.041 68.7107 17.569C69.3707 18.075 69.8987 18.669 70.2947 19.351C70.7127 20.011 70.9217 20.781 70.9217 21.661C70.9217 23.091 70.5587 24.323 69.8327 25.357C69.1067 26.369 68.0727 27.15 66.7307 27.7C65.4107 28.228 63.8377 28.492 62.0117 28.492ZM67.5227 37.765V36.973C67.5227 35.961 67.1927 35.257 66.5327 34.861C65.8947 34.465 65.0147 34.267 63.8927 34.267H58.7777C57.7877 34.267 56.9517 34.19 56.2697 34.036C55.6097 33.882 55.0817 33.662 54.6857 33.376C54.2897 33.09 54.0037 32.749 53.8277 32.353C53.6517 31.979 53.5637 31.572 53.5637 31.132C53.5637 30.252 53.8497 29.592 54.4217 29.152C54.9937 28.69 55.7637 28.382 56.7317 28.228C57.6997 28.074 58.7667 28.041 59.9327 28.129L62.0117 28.492C60.6257 28.536 59.5917 28.657 58.9097 28.855C58.2497 29.031 57.9197 29.394 57.9197 29.944C57.9197 30.274 58.0517 30.538 58.3157 30.736C58.5797 30.912 58.9537 31 59.4377 31H64.8167C66.2907 31 67.5447 31.154 68.5787 31.462C69.6347 31.792 70.4377 32.331 70.9877 33.079C71.5377 33.849 71.8127 34.894 71.8127 36.214V37.765H67.5227ZM62.0117 25.39C62.9577 25.39 63.7827 25.236 64.4867 24.928C65.2127 24.62 65.7737 24.18 66.1697 23.608C66.5657 23.014 66.7637 22.31 66.7637 21.496C66.7637 20.66 66.5657 19.945 66.1697 19.351C65.7737 18.757 65.2237 18.306 64.5197 17.998C63.8157 17.668 62.9797 17.503 62.0117 17.503C61.0657 17.503 60.2297 17.668 59.5037 17.998C58.7777 18.306 58.2167 18.757 57.8207 19.351C57.4247 19.945 57.2267 20.66 57.2267 21.496C57.2267 22.31 57.4247 23.014 57.8207 23.608C58.2167 24.18 58.7667 24.62 59.4707 24.928C60.1967 25.236 61.0437 25.39 62.0117 25.39ZM75.9673 14.599H80.2573V31H75.9673V14.599ZM86.5603 18.13C85.3283 18.13 84.2613 18.372 83.3593 18.856C82.4573 19.318 81.7313 19.89 81.1813 20.572C80.6313 21.254 80.2463 21.914 80.0263 22.552L79.9933 20.737C80.0153 20.473 80.1033 20.088 80.2573 19.582C80.4113 19.054 80.6423 18.493 80.9503 17.899C81.2583 17.283 81.6653 16.7 82.1713 16.15C82.6773 15.578 83.2933 15.116 84.0193 14.764C84.7453 14.412 85.5923 14.236 86.5603 14.236V18.13ZM94.1294 7.405V11.167H89.1464V7.405H94.1294ZM89.4764 14.599H93.7664V31H89.4764V14.599ZM98.3725 7.999H102.663V31H98.3725V7.999ZM121.95 25.555H126.108C125.932 26.677 125.459 27.678 124.689 28.558C123.941 29.438 122.918 30.131 121.62 30.637C120.322 31.143 118.738 31.396 116.868 31.396C114.778 31.396 112.93 31.066 111.324 30.406C109.718 29.724 108.464 28.745 107.562 27.469C106.66 26.193 106.209 24.653 106.209 22.849C106.209 21.045 106.649 19.505 107.529 18.229C108.409 16.931 109.63 15.941 111.192 15.259C112.776 14.577 114.624 14.236 116.736 14.236C118.892 14.236 120.685 14.577 122.115 15.259C123.545 15.941 124.601 16.975 125.283 18.361C125.987 19.725 126.284 21.474 126.174 23.608H110.532C110.642 24.444 110.95 25.203 111.456 25.885C111.984 26.567 112.688 27.106 113.568 27.502C114.47 27.898 115.537 28.096 116.769 28.096C118.133 28.096 119.266 27.865 120.168 27.403C121.092 26.919 121.686 26.303 121.95 25.555ZM116.538 17.503C114.954 17.503 113.667 17.855 112.677 18.559C111.687 19.241 111.049 20.088 110.763 21.1H121.917C121.807 20 121.279 19.131 120.333 18.493C119.409 17.833 118.144 17.503 116.538 17.503Z" fill="#051815"></path><g clip-path="url(#clip0_436_52)"><path d="M22.2253 2.10006C9.30477 7.72031 5.235 16.0338 10.016 27.0428C3.70794 19.5925 1.6124 9.38155 4.46433 0C-0.737648 7.62869 -1.44647 17.519 2.61379 25.8324C6.67405 34.1435 14.8612 39.5684 24.0021 40.0024C18.7835 37.9482 14.7232 33.6661 12.906 28.299C11.0887 22.9295 11.7024 17.0223 14.5805 12.1543C12.4183 17.0705 12.2257 22.3339 14.0001 27.947C22.3299 22.6787 25.2509 17.0464 22.7581 11.05C20.7506 6.956 20.5745 3.97348 22.2253 2.10006Z" fill="#107634"></path></g><defs><clipPath id="clip0_436_52"><rect width="24" height="40" fill="white"></rect></clipPath></defs></svg>